<mxfile host="app.diagrams.net" modified="2020-12-07T06:56:43.445Z" agent="5.0 (Windows NT 10.0; Win64; x64) AppleWebKit/537.36 (KHTML, like Gecko) Chrome/88.0.4315.5 Safari/537.36" etag="F-0w6wcWahU_1CG-45i9" version="13.10.9" type="github">
  <diagram id="ZvntVvPrOeDmTjLb1HEv" name="Page-1">
    <mxGraphModel dx="2062" dy="1122" grid="1" gridSize="10" guides="1" tooltips="1" connect="1" arrows="1" fold="1" page="1" pageScale="1" pageWidth="827" pageHeight="1169" math="0" shadow="0">
      <root>
        <mxCell id="0" />
        <mxCell id="1" parent="0" />
        <mxCell id="Ns4_y0VYS1mbAdZt4848-9" value="" style="edgeStyle=orthogonalEdgeStyle;rounded=0;orthogonalLoop=1;jettySize=auto;html=1;fontSize=16;" edge="1" parent="1" source="Ns4_y0VYS1mbAdZt4848-7">
          <mxGeometry relative="1" as="geometry">
            <mxPoint x="195" y="360" as="targetPoint" />
          </mxGeometry>
        </mxCell>
        <mxCell id="Ns4_y0VYS1mbAdZt4848-7" value="主线程" style="rounded=0;whiteSpace=wrap;html=1;strokeColor=#000000;fillColor=#ffffff;fontSize=16;" vertex="1" parent="1">
          <mxGeometry x="150" y="220" width="90" height="60" as="geometry" />
        </mxCell>
        <mxCell id="Ns4_y0VYS1mbAdZt4848-12" value="" style="edgeStyle=orthogonalEdgeStyle;rounded=0;orthogonalLoop=1;jettySize=auto;html=1;fontSize=16;" edge="1" parent="1" source="Ns4_y0VYS1mbAdZt4848-10" target="Ns4_y0VYS1mbAdZt4848-11">
          <mxGeometry relative="1" as="geometry" />
        </mxCell>
        <mxCell id="Ns4_y0VYS1mbAdZt4848-14" value="" style="edgeStyle=orthogonalEdgeStyle;rounded=0;orthogonalLoop=1;jettySize=auto;html=1;fontSize=16;" edge="1" parent="1" source="Ns4_y0VYS1mbAdZt4848-10" target="Ns4_y0VYS1mbAdZt4848-13">
          <mxGeometry relative="1" as="geometry" />
        </mxCell>
        <mxCell id="Ns4_y0VYS1mbAdZt4848-10" value="json" style="rounded=0;whiteSpace=wrap;html=1;strokeColor=#000000;fillColor=#ffffff;fontSize=16;" vertex="1" parent="1">
          <mxGeometry x="150" y="360" width="90" height="60" as="geometry" />
        </mxCell>
        <mxCell id="Ns4_y0VYS1mbAdZt4848-16" value="" style="edgeStyle=orthogonalEdgeStyle;rounded=0;orthogonalLoop=1;jettySize=auto;html=1;fontSize=16;" edge="1" parent="1" source="Ns4_y0VYS1mbAdZt4848-11" target="Ns4_y0VYS1mbAdZt4848-15">
          <mxGeometry relative="1" as="geometry" />
        </mxCell>
        <mxCell id="Ns4_y0VYS1mbAdZt4848-11" value="Thread-01" style="whiteSpace=wrap;html=1;rounded=0;fontSize=16;" vertex="1" parent="1">
          <mxGeometry x="305" y="360" width="120" height="60" as="geometry" />
        </mxCell>
        <mxCell id="Ns4_y0VYS1mbAdZt4848-18" value="" style="edgeStyle=orthogonalEdgeStyle;rounded=0;orthogonalLoop=1;jettySize=auto;html=1;fontSize=16;" edge="1" parent="1" source="Ns4_y0VYS1mbAdZt4848-13" target="Ns4_y0VYS1mbAdZt4848-17">
          <mxGeometry relative="1" as="geometry" />
        </mxCell>
        <mxCell id="Ns4_y0VYS1mbAdZt4848-13" value="线程挂起&lt;br&gt;阻塞" style="shape=note;whiteSpace=wrap;html=1;backgroundOutline=1;darkOpacity=0.05;rounded=0;fontSize=16;" vertex="1" parent="1">
          <mxGeometry x="155" y="480" width="80" height="100" as="geometry" />
        </mxCell>
        <mxCell id="Ns4_y0VYS1mbAdZt4848-19" style="edgeStyle=orthogonalEdgeStyle;rounded=0;orthogonalLoop=1;jettySize=auto;html=1;fontSize=16;" edge="1" parent="1" source="Ns4_y0VYS1mbAdZt4848-15">
          <mxGeometry relative="1" as="geometry">
            <mxPoint x="200" y="620" as="targetPoint" />
            <Array as="points">
              <mxPoint x="365" y="620" />
              <mxPoint x="200" y="620" />
            </Array>
          </mxGeometry>
        </mxCell>
        <mxCell id="Ns4_y0VYS1mbAdZt4848-20" value="join线程执行完毕" style="edgeLabel;html=1;align=center;verticalAlign=middle;resizable=0;points=[];fontSize=16;" vertex="1" connectable="0" parent="Ns4_y0VYS1mbAdZt4848-19">
          <mxGeometry x="0.1556" y="2" relative="1" as="geometry">
            <mxPoint as="offset" />
          </mxGeometry>
        </mxCell>
        <mxCell id="Ns4_y0VYS1mbAdZt4848-15" value="01线程执行完毕" style="whiteSpace=wrap;html=1;rounded=0;fontSize=16;" vertex="1" parent="1">
          <mxGeometry x="305" y="500" width="120" height="60" as="geometry" />
        </mxCell>
        <mxCell id="Ns4_y0VYS1mbAdZt4848-22" value="" style="edgeStyle=orthogonalEdgeStyle;rounded=0;orthogonalLoop=1;jettySize=auto;html=1;fontSize=16;" edge="1" parent="1" source="Ns4_y0VYS1mbAdZt4848-17" target="Ns4_y0VYS1mbAdZt4848-21">
          <mxGeometry relative="1" as="geometry" />
        </mxCell>
        <mxCell id="Ns4_y0VYS1mbAdZt4848-17" value="主线程继续执行" style="whiteSpace=wrap;html=1;rounded=0;fontSize=16;" vertex="1" parent="1">
          <mxGeometry x="135" y="680" width="120" height="60" as="geometry" />
        </mxCell>
        <mxCell id="Ns4_y0VYS1mbAdZt4848-21" value="结束" style="ellipse;whiteSpace=wrap;html=1;rounded=0;fontSize=16;" vertex="1" parent="1">
          <mxGeometry x="135" y="790" width="120" height="80" as="geometry" />
        </mxCell>
      </root>
    </mxGraphModel>
  </diagram>
</mxfile>
